<?xml version="1.0" encoding="UTF-8"?>
<svg id="projects" xmlns="http://www.w3.org/2000/svg" viewBox="0 0 500 500">
  <defs>
    <style>
      .cls-1 {
        fill: none;
        stroke: #4e4738;
        stroke-miterlimit: 10;
        stroke-width: 50px;
      }

      .cls-2 {
        fill: #4e4738;
      }
    </style>
  </defs>
  <path class="cls-1" d="M192,192.82v185.48"/>
  <g>
    <path class="cls-1" d="M317.4,200.53v177.77"/>
    <path class="cls-2" d="M280.55,109.85h73.7v107.17c0,18.21-14.78,32.99-32.99,32.99h-40.71V109.85h0Z" transform="translate(634.79 359.85) rotate(180)"/>
  </g>
  <path class="cls-2" d="M216.23,121.96v45.67c0,3.75-3.04,6.79-6.79,6.79h0c-3.75,0-6.79-3.04-6.79-6.79v-51c0-3.75-3.04-6.79-6.79-6.79h-7.74c-3.75,0-6.79,3.04-6.79,6.79v51c0,3.75-3.04,6.79-6.79,6.79h0c-3.75,0-6.79-3.04-6.79-6.79v-45.67c0-5.69-6.63-8.91-11.03-5.31-6.72,5.51-11,13.87-11,23.23v36.63c0,20.34,16.49,36.83,36.83,36.83h18.84c20.34,0,36.83-16.49,36.83-36.83v-36.63c0-9.36-4.29-17.72-11-23.23-4.4-3.61-11.03-.38-11.03,5.31Z"/>
</svg>